# Blender v2.92.0 OBJ File: ''
# www.blender.org
mtllib 010.mtl
o ICOçƒ
v 1.550000 2.350000 -1.170000
v 1.853915 2.676140 -0.833536
v 1.433917 2.676140 -0.625584
v 1.174341 2.676143 -1.170000
v 1.433917 2.676140 -1.714415
v 1.853915 2.676140 -1.506464
v 1.666083 3.203860 -0.625584
v 1.246085 3.203859 -0.833536
v 1.246085 3.203859 -1.506464
v 1.666083 3.203860 -1.714415
v 1.925659 3.203857 -1.170000
v 1.550000 3.530000 -1.170000
v 1.481769 2.438114 -0.850003
v 1.728636 2.438114 -0.972233
v 1.660405 2.629815 -0.652233
v 1.907272 2.629816 -1.170000
v 1.728636 2.438114 -1.367767
v 1.329193 2.438115 -1.170000
v 1.260960 2.629815 -0.850002
v 1.481769 2.438114 -1.489997
v 1.260960 2.629815 -1.489998
v 1.660405 2.629815 -1.687767
v 1.949444 2.940000 -0.972232
v 1.949444 2.940000 -1.367768
v 1.550000 2.940000 -0.530000
v 1.796870 2.940000 -0.652229
v 1.150556 2.940000 -0.972232
v 1.303130 2.940000 -0.652229
v 1.303130 2.940000 -1.687771
v 1.150556 2.940000 -1.367768
v 1.796870 2.940000 -1.687771
v 1.550000 2.940000 -1.810000
v 1.839040 3.250184 -0.850002
v 1.439595 3.250185 -0.652233
v 1.192728 3.250184 -1.170000
v 1.439595 3.250185 -1.687767
v 1.839040 3.250184 -1.489998
v 1.618231 3.441886 -0.850003
v 1.770806 3.441884 -1.170000
v 1.371364 3.441886 -0.972233
v 1.371364 3.441886 -1.367767
v 1.618231 3.441886 -1.489997
vt 0.818181 0.000000
vt 0.772726 0.078731
vt 0.863635 0.078731
vt 0.727272 0.157461
vt 0.681818 0.078731
vt 0.636363 0.157461
vt 0.090909 0.000000
vt 0.045454 0.078731
vt 0.136363 0.078731
vt 0.272727 0.000000
vt 0.227273 0.078731
vt 0.318182 0.078731
vt 0.454545 0.000000
vt 0.409090 0.078731
vt 0.500000 0.078731
vt 0.681818 0.236191
vt 0.909090 0.157461
vt 0.818181 0.157461
vt 0.863635 0.236191
vt 0.181818 0.157461
vt 0.090909 0.157461
vt 0.136363 0.236191
vt 0.363636 0.157461
vt 0.272727 0.157461
vt 0.318182 0.236191
vt 0.545454 0.157461
vt 0.454545 0.157461
vt 0.500000 0.236191
vt 0.772726 0.236191
vt 0.954545 0.236191
vt 0.227273 0.236191
vt 0.409090 0.236191
vt 0.590909 0.236191
vt 0.818181 0.314921
vt 0.727272 0.314921
vt 0.772726 0.393651
vt 1.000000 0.314921
vt 0.909091 0.314921
vt 0.954545 0.393651
vt 0.272727 0.314921
vt 0.181818 0.314921
vt 0.227273 0.393651
vt 0.454545 0.314921
vt 0.363636 0.314921
vt 0.409090 0.393651
vt 0.636363 0.314921
vt 0.545454 0.314921
vt 0.590909 0.393651
vt 0.500000 0.393651
vt 0.545454 0.472382
vt 0.318182 0.393651
vt 0.363636 0.472382
vt 0.136363 0.393651
vt 0.181818 0.472382
vt 0.090909 0.314921
vt 0.863635 0.393651
vt 0.909090 0.472382
vt 0.681818 0.393651
vt 0.727272 0.472382
vt 0.045454 0.236191
vt 0.000000 0.157461
vt 0.590909 0.078731
vt 0.636363 0.000000
vn 0.1442 -0.9458 0.2912
vn 0.8123 -0.5464 0.2040
vn -0.3650 -0.9146 0.1740
vn -0.3650 -0.9146 -0.1740
vn 0.1442 -0.9458 -0.2912
vn 0.9512 -0.2472 0.1849
vn 0.0373 -0.3548 0.9342
vn -0.9433 -0.2494 0.2192
vn -0.7257 -0.2970 -0.6206
vn 0.6892 -0.3032 -0.6581
vn 0.8981 -0.1001 0.4282
vn -0.4400 -0.1284 0.8888
vn -0.9960 -0.0898 0.0000
vn -0.4400 -0.1284 -0.8888
vn 0.8981 -0.1001 -0.4282
vn 0.5469 0.6299 0.5515
vn -0.6134 0.6130 0.4980
vn -0.8123 0.5464 -0.2040
vn 0.0565 0.6909 -0.7207
vn 0.8292 0.5394 -0.1464
vn 0.3650 0.9146 -0.1740
vn 0.6257 0.7207 -0.2983
vn 0.5469 0.6299 -0.5515
vn -0.1442 0.9458 -0.2912
vn -0.2656 0.8010 -0.5365
vn -0.6134 0.6130 -0.4980
vn -0.4424 0.8968 0.0000
vn -0.7316 0.6817 0.0000
vn -0.8123 0.5464 0.2040
vn -0.1442 0.9458 0.2912
vn -0.2656 0.8010 0.5365
vn 0.0565 0.6909 0.7207
vn 0.3650 0.9146 0.1740
vn 0.6257 0.7207 0.2983
vn 0.8292 0.5394 0.1464
vn 0.9433 0.2494 -0.2192
vn 0.8924 0.1500 -0.4255
vn 0.7257 0.2970 -0.6206
vn -0.0373 0.3548 -0.9342
vn -0.4355 0.1916 -0.8796
vn -0.6892 0.3032 -0.6581
vn -0.9512 0.2472 -0.1849
vn -0.9909 0.1347 0.0000
vn -0.9512 0.2472 0.1849
vn -0.6892 0.3032 0.6581
vn -0.4355 0.1916 0.8796
vn -0.0373 0.3548 0.9342
vn 0.7257 0.2970 0.6206
vn 0.8924 0.1500 0.4255
vn 0.9433 0.2494 0.2192
vn 0.4400 0.1284 -0.8888
vn 0.4355 -0.1916 -0.8796
vn 0.0373 -0.3548 -0.9342
vn -0.8981 0.1001 -0.4282
vn -0.8924 -0.1500 -0.4255
vn -0.9433 -0.2494 -0.2192
vn -0.8981 0.1001 0.4282
vn -0.8924 -0.1500 0.4255
vn -0.7257 -0.2970 0.6206
vn 0.4400 0.1284 0.8888
vn 0.4355 -0.1916 0.8796
vn 0.6892 -0.3032 0.6581
vn 0.9960 0.0898 0.0000
vn 0.9909 -0.1347 0.0000
vn 0.9512 -0.2472 -0.1849
vn 0.6134 -0.6130 -0.4980
vn 0.2656 -0.8010 -0.5365
vn -0.0565 -0.6909 -0.7207
vn -0.5469 -0.6299 -0.5515
vn -0.6257 -0.7207 -0.2983
vn -0.8292 -0.5394 -0.1464
vn -0.8292 -0.5394 0.1464
vn -0.6257 -0.7207 0.2983
vn -0.5469 -0.6299 0.5515
vn 0.8123 -0.5464 -0.2040
vn 0.7316 -0.6817 0.0000
vn 0.4424 -0.8968 0.0000
vn -0.0565 -0.6909 0.7207
vn 0.2656 -0.8010 0.5365
vn 0.6134 -0.6130 0.4980
usemtl None
s off
f 1/1/1 14/2/1 13/3/1
f 2/4/2 14/5/2 16/6/2
f 1/7/3 13/8/3 18/9/3
f 1/10/4 18/11/4 20/12/4
f 1/13/5 20/14/5 17/15/5
f 2/4/6 16/6/6 23/16/6
f 3/17/7 15/18/7 25/19/7
f 4/20/8 19/21/8 27/22/8
f 5/23/9 21/24/9 29/25/9
f 6/26/10 22/27/10 31/28/10
f 2/4/11 23/16/11 26/29/11
f 3/17/12 25/19/12 28/30/12
f 4/20/13 27/22/13 30/31/13
f 5/23/14 29/25/14 32/32/14
f 6/26/15 31/28/15 24/33/15
f 7/34/16 33/35/16 38/36/16
f 8/37/17 34/38/17 40/39/17
f 9/40/18 35/41/18 41/42/18
f 10/43/19 36/44/19 42/45/19
f 11/46/20 37/47/20 39/48/20
f 39/48/21 42/49/21 12/50/21
f 39/48/22 37/47/22 42/49/22
f 37/47/23 10/43/23 42/49/23
f 42/45/24 41/51/24 12/52/24
f 42/45/25 36/44/25 41/51/25
f 36/44/26 9/40/26 41/51/26
f 41/42/27 40/53/27 12/54/27
f 41/42/28 35/41/28 40/53/28
f 35/41/29 8/55/29 40/53/29
f 40/39/30 38/56/30 12/57/30
f 40/39/31 34/38/31 38/56/31
f 34/38/32 7/34/32 38/56/32
f 38/36/33 39/58/33 12/59/33
f 38/36/34 33/35/34 39/58/34
f 33/35/35 11/46/35 39/58/35
f 24/33/36 37/47/36 11/46/36
f 24/33/37 31/28/37 37/47/37
f 31/28/38 10/43/38 37/47/38
f 32/32/39 36/44/39 10/43/39
f 32/32/40 29/25/40 36/44/40
f 29/25/41 9/40/41 36/44/41
f 30/31/42 35/41/42 9/40/42
f 30/31/43 27/22/43 35/41/43
f 27/22/44 8/55/44 35/41/44
f 28/30/45 34/38/45 8/37/45
f 28/30/46 25/19/46 34/38/46
f 25/19/47 7/34/47 34/38/47
f 26/29/48 33/35/48 7/34/48
f 26/29/49 23/16/49 33/35/49
f 23/16/50 11/46/50 33/35/50
f 31/28/51 32/32/51 10/43/51
f 31/28/52 22/27/52 32/32/52
f 22/27/53 5/23/53 32/32/53
f 29/25/54 30/31/54 9/40/54
f 29/25/55 21/24/55 30/31/55
f 21/24/56 4/20/56 30/31/56
f 27/22/57 28/60/57 8/55/57
f 27/22/58 19/21/58 28/60/58
f 19/21/59 3/61/59 28/60/59
f 25/19/60 26/29/60 7/34/60
f 25/19/61 15/18/61 26/29/61
f 15/18/62 2/4/62 26/29/62
f 23/16/63 24/33/63 11/46/63
f 23/16/64 16/6/64 24/33/64
f 16/6/65 6/26/65 24/33/65
f 17/15/66 22/27/66 6/26/66
f 17/15/67 20/14/67 22/27/67
f 20/14/68 5/23/68 22/27/68
f 20/12/69 21/24/69 5/23/69
f 20/12/70 18/11/70 21/24/70
f 18/11/71 4/20/71 21/24/71
f 18/9/72 19/21/72 4/20/72
f 18/9/73 13/8/73 19/21/73
f 13/8/74 3/61/74 19/21/74
f 16/6/75 17/62/75 6/26/75
f 16/6/76 14/5/76 17/62/76
f 14/5/77 1/63/77 17/62/77
f 13/3/78 15/18/78 3/17/78
f 13/3/79 14/2/79 15/18/79
f 14/2/80 2/4/80 15/18/80
o å††éŒ
v 1.419843 -0.716665 0.758537
v 1.356396 -0.675661 0.818596
v 1.310482 -0.636233 0.898148
v 1.283865 -0.599896 0.994135
v 1.277570 -0.568046 1.102868
v 1.291837 -0.541908 1.220168
v 1.326119 -0.522485 1.341529
v 1.379097 -0.510525 1.462286
v 1.448737 -0.506487 1.577799
v 1.532362 -0.510525 1.683628
v 1.626757 -0.522485 1.775706
v 1.728296 -0.541908 1.850495
v 1.833077 -0.568046 1.905122
v 1.937073 -0.599896 1.937486
v 2.036287 -0.636233 1.946343
v 2.126906 -0.675661 1.931355
v 2.205449 -0.716665 1.893095
v 2.268897 -0.757668 1.833036
v 2.314811 -0.797096 1.753484
v 2.341427 -0.833433 1.657497
v 2.347723 -0.865283 1.548764
v 2.333455 -0.891421 1.431463
v 2.299173 -0.910844 1.310102
v 2.246195 -0.922804 1.189345
v 2.176555 -0.926843 1.073833
v 2.092931 -0.922804 0.968004
v 1.998535 -0.910844 0.875926
v 1.896996 -0.891421 0.801136
v 1.792215 -0.865283 0.746510
v 1.688219 -0.833433 0.714146
v 1.589005 -0.797096 0.705289
v 1.498386 -0.757668 0.720278
v 1.107354 -2.523335 1.814184
vt 0.250000 0.490000
vt 0.250000 0.250000
vt 0.296822 0.485388
vt 0.341844 0.471731
vt 0.383337 0.449553
vt 0.419706 0.419706
vt 0.449553 0.383337
vt 0.471731 0.341844
vt 0.485388 0.296822
vt 0.490000 0.250000
vt 0.485388 0.203178
vt 0.471731 0.158156
vt 0.449553 0.116663
vt 0.419706 0.080294
vt 0.383337 0.050447
vt 0.341844 0.028269
vt 0.296822 0.014612
vt 0.250000 0.010000
vt 0.203178 0.014612
vt 0.158156 0.028269
vt 0.116663 0.050447
vt 0.080294 0.080294
vt 0.050447 0.116663
vt 0.028269 0.158156
vt 0.014611 0.203179
vt 0.010000 0.250000
vt 0.014612 0.296822
vt 0.028269 0.341844
vt 0.050447 0.383337
vt 0.080295 0.419706
vt 0.116663 0.449553
vt 0.158156 0.471731
vt 0.750000 0.490000
vt 0.796822 0.485388
vt 0.841844 0.471731
vt 0.883337 0.449553
vt 0.919706 0.419706
vt 0.949553 0.383337
vt 0.971731 0.341844
vt 0.985388 0.296822
vt 0.990000 0.250000
vt 0.985388 0.203178
vt 0.971731 0.158156
vt 0.949553 0.116663
vt 0.919706 0.080294
vt 0.883337 0.050447
vt 0.841844 0.028269
vt 0.796822 0.014612
vt 0.750000 0.010000
vt 0.703178 0.014612
vt 0.658156 0.028269
vt 0.616663 0.050447
vt 0.580294 0.080294
vt 0.550447 0.116663
vt 0.528269 0.158156
vt 0.514611 0.203179
vt 0.510000 0.250000
vt 0.514612 0.296822
vt 0.528269 0.341844
vt 0.550447 0.383337
vt 0.580295 0.419706
vt 0.616663 0.449553
vt 0.658156 0.471731
vt 0.703179 0.485389
vt 0.203179 0.485389
vn -0.7442 -0.2363 -0.6248
vn -0.8847 -0.1230 -0.4496
vn -0.9655 -0.0220 -0.2594
vn -0.9954 0.0594 -0.0750
vn -0.9884 0.1200 0.0935
vn -0.9561 0.1622 0.2441
vn -0.9061 0.1886 0.3788
vn -0.8420 0.2012 0.5006
vn -0.7648 0.2012 0.6120
vn -0.6734 0.1886 0.7148
vn -0.5649 0.1622 0.8091
vn -0.4352 0.1200 0.8923
vn -0.2800 0.0594 0.9582
vn -0.0969 -0.0220 0.9951
vn 0.1096 -0.1230 0.9863
vn 0.3230 -0.2364 0.9164
vn 0.5161 -0.3479 0.7827
vn 0.6637 -0.4431 0.6027
vn 0.7560 -0.5146 0.4045
vn 0.7986 -0.5636 0.2113
vn 0.8029 -0.5951 0.0349
vn 0.7796 -0.6143 -0.1219
vn 0.7356 -0.6252 -0.2608
vn 0.6745 -0.6301 -0.3846
vn 0.5974 -0.6301 -0.4961
vn 0.5029 -0.6252 -0.5968
vn 0.3884 -0.6143 -0.6869
vn 0.2498 -0.5951 -0.7639
vn 0.0832 -0.5636 -0.8219
vn -0.1126 -0.5146 -0.8500
vn 0.3526 0.9033 -0.2442
vn -0.3306 -0.4431 -0.8333
vn -0.5511 -0.3479 -0.7585
usemtl None
s off
f 43/64/81 75/65/81 44/66/81
f 44/66/82 75/65/82 45/67/82
f 45/67/83 75/65/83 46/68/83
f 46/68/84 75/65/84 47/69/84
f 47/69/85 75/65/85 48/70/85
f 48/70/86 75/65/86 49/71/86
f 49/71/87 75/65/87 50/72/87
f 50/72/88 75/65/88 51/73/88
f 51/73/89 75/65/89 52/74/89
f 52/74/90 75/65/90 53/75/90
f 53/75/91 75/65/91 54/76/91
f 54/76/92 75/65/92 55/77/92
f 55/77/93 75/65/93 56/78/93
f 56/78/94 75/65/94 57/79/94
f 57/79/95 75/65/95 58/80/95
f 58/80/96 75/65/96 59/81/96
f 59/81/97 75/65/97 60/82/97
f 60/82/98 75/65/98 61/83/98
f 61/83/99 75/65/99 62/84/99
f 62/84/100 75/65/100 63/85/100
f 63/85/101 75/65/101 64/86/101
f 64/86/102 75/65/102 65/87/102
f 65/87/103 75/65/103 66/88/103
f 66/88/104 75/65/104 67/89/104
f 67/89/105 75/65/105 68/90/105
f 68/90/106 75/65/106 69/91/106
f 69/91/107 75/65/107 70/92/107
f 70/92/108 75/65/108 71/93/108
f 71/93/109 75/65/109 72/94/109
f 72/94/110 75/65/110 73/95/110
f 43/96/111 44/97/111 45/98/111 46/99/111 47/100/111 48/101/111 49/102/111 50/103/111 51/104/111 52/105/111 53/106/111 54/107/111 55/108/111 56/109/111 57/110/111 58/111/111 59/112/111 60/113/111 61/114/111 62/115/111 63/116/111 64/117/111 65/118/111 66/119/111 67/120/111 68/121/111 69/122/111 70/123/111 71/124/111 72/125/111 73/126/111 74/127/111
f 73/95/112 75/65/112 74/128/112
f 74/128/113 75/65/113 43/64/113
