# Blender v2.92.0 OBJ File: ''
# www.blender.org
mtllib 009.mtl
o 立方体
v -2.000000 -0.494974 -0.000864
v -2.000000 -0.000864 0.494974
v -2.000000 0.000864 -0.494974
v -2.000000 0.494974 0.000864
v 2.000000 -0.494974 -0.000864
v 2.000000 -0.000864 0.494974
v 2.000000 0.000864 -0.494974
v 2.000000 0.494974 0.000864
vt 0.375000 0.000000
vt 0.625000 0.000000
vt 0.625000 0.250000
vt 0.375000 0.250000
vt 0.625000 0.500000
vt 0.375000 0.500000
vt 0.625000 0.750000
vt 0.375000 0.750000
vt 0.625000 1.000000
vt 0.375000 1.000000
vt 0.125000 0.500000
vt 0.125000 0.750000
vt 0.875000 0.500000
vt 0.875000 0.750000
vn -1.0000 0.0000 0.0000
vn 0.0000 0.7083 -0.7059
vn 1.0000 0.0000 0.0000
vn 0.0000 -0.7083 0.7059
vn 0.0000 -0.7059 -0.7083
vn 0.0000 0.7059 0.7083
usemtl None
s off
f 1/1/1 2/2/1 4/3/1 3/4/1
f 3/4/2 4/3/2 8/5/2 7/6/2
f 7/6/3 8/5/3 6/7/3 5/8/3
f 5/8/4 6/7/4 2/9/4 1/10/4
f 3/11/5 7/6/5 5/8/5 1/12/5
f 8/5/6 4/13/6 2/14/6 6/7/6
o 立方体.001
v -0.459641 -0.005467 2.000000
v 0.008675 0.459592 2.000000
v -0.459641 -0.005467 -2.000000
v 0.008675 0.459592 -2.000000
v -0.008675 -0.459592 2.000000
v 0.459641 0.005467 2.000000
v -0.008675 -0.459592 -2.000000
v 0.459641 0.005467 -2.000000
vt 0.375000 0.000000
vt 0.625000 0.000000
vt 0.625000 0.250000
vt 0.375000 0.250000
vt 0.625000 0.500000
vt 0.375000 0.500000
vt 0.625000 0.750000
vt 0.375000 0.750000
vt 0.625000 1.000000
vt 0.375000 1.000000
vt 0.125000 0.500000
vt 0.125000 0.750000
vt 0.875000 0.500000
vt 0.875000 0.750000
vn -0.7046 0.7096 0.0000
vn 0.0000 0.0000 -1.0000
vn 0.7046 -0.7096 0.0000
vn 0.0000 0.0000 1.0000
vn -0.7096 -0.7046 0.0000
vn 0.7096 0.7046 0.0000
usemtl None
s off
f 9/15/7 10/16/7 12/17/7 11/18/7
f 11/18/8 12/17/8 16/19/8 15/20/8
f 15/20/9 16/19/9 14/21/9 13/22/9
f 13/22/10 14/21/10 10/23/10 9/24/10
f 11/25/11 15/20/11 13/22/11 9/26/11
f 16/19/12 12/27/12 10/28/12 14/21/12
o 立方体.002
v 0.002592 -2.000000 0.494968
v 0.002592 2.000000 0.494968
v -0.494968 -2.000000 0.002592
v -0.494968 2.000000 0.002592
v 0.494968 -2.000000 -0.002592
v 0.494968 2.000000 -0.002592
v -0.002592 -2.000000 -0.494968
v -0.002592 2.000000 -0.494968
vt 0.375000 0.000000
vt 0.625000 0.000000
vt 0.625000 0.250000
vt 0.375000 0.250000
vt 0.625000 0.500000
vt 0.375000 0.500000
vt 0.625000 0.750000
vt 0.375000 0.750000
vt 0.625000 1.000000
vt 0.375000 1.000000
vt 0.125000 0.500000
vt 0.125000 0.750000
vt 0.875000 0.500000
vt 0.875000 0.750000
vn -0.7034 0.0000 0.7108
vn -0.7108 0.0000 -0.7034
vn 0.7034 0.0000 -0.7108
vn 0.7108 0.0000 0.7034
vn 0.0000 -1.0000 0.0000
vn 0.0000 1.0000 0.0000
usemtl None
s off
f 17/29/13 18/30/13 20/31/13 19/32/13
f 19/32/14 20/31/14 24/33/14 23/34/14
f 23/34/15 24/33/15 22/35/15 21/36/15
f 21/36/16 22/35/16 18/37/16 17/38/16
f 19/39/17 23/34/17 21/36/17 17/40/17
f 24/33/18 20/41/18 18/42/18 22/35/18
o 円錐.001_円錐.003
v -0.006021 -3.719984 -2.330000
v -0.468379 -3.717564 -2.285229
v -0.912968 -3.715236 -2.152639
v -1.322705 -3.713090 -1.937324
v -1.681841 -3.711210 -1.647559
v -1.976577 -3.709667 -1.294479
v -2.195585 -3.708520 -0.891652
v -2.330450 -3.707814 -0.454561
v -2.375988 -3.707576 -0.000000
v -2.330450 -3.707814 0.454560
v -2.195585 -3.708520 0.891652
v -1.976577 -3.709667 1.294479
v -1.681841 -3.711210 1.647559
v -1.322704 -3.713090 1.937324
v -0.912968 -3.715236 2.152639
v -0.468378 -3.717564 2.285230
v -0.006020 -3.719984 2.330000
v 0.456338 -3.722405 2.285229
v 0.900927 -3.724733 2.152639
v 1.310663 -3.726878 1.937323
v 1.669800 -3.728759 1.647558
v 1.964536 -3.730302 1.294477
v 2.183544 -3.731448 0.891651
v 2.318408 -3.732155 0.454558
v 2.363946 -3.732393 -0.000002
v 2.318408 -3.732155 -0.454563
v 2.183542 -3.731448 -0.891655
v 1.964533 -3.730302 -1.294481
v 1.669797 -3.728759 -1.647561
v 1.310660 -3.726878 -1.937326
v 0.900923 -3.724733 -2.152641
v 0.456333 -3.722405 -2.285230
v 0.006021 -1.420016 0.000000
vt 0.250000 0.490000
vt 0.296822 0.485388
vt 0.250000 0.250000
vt 0.341844 0.471731
vt 0.383337 0.449553
vt 0.419706 0.419706
vt 0.449553 0.383337
vt 0.471731 0.341844
vt 0.485388 0.296822
vt 0.490000 0.250000
vt 0.485388 0.203178
vt 0.471731 0.158156
vt 0.449553 0.116663
vt 0.419706 0.080294
vt 0.383337 0.050447
vt 0.341844 0.028269
vt 0.296822 0.014612
vt 0.250000 0.010000
vt 0.203178 0.014612
vt 0.158156 0.028269
vt 0.116663 0.050447
vt 0.080294 0.080294
vt 0.050447 0.116663
vt 0.028269 0.158156
vt 0.014611 0.203179
vt 0.010000 0.250000
vt 0.014612 0.296822
vt 0.028269 0.341844
vt 0.050447 0.383337
vt 0.080295 0.419706
vt 0.116663 0.449553
vt 0.158156 0.471731
vt 0.750000 0.490000
vt 0.703179 0.485389
vt 0.658156 0.471731
vt 0.616663 0.449553
vt 0.580295 0.419706
vt 0.550447 0.383337
vt 0.528269 0.341844
vt 0.514612 0.296822
vt 0.510000 0.250000
vt 0.514611 0.203179
vt 0.528269 0.158156
vt 0.550447 0.116663
vt 0.580294 0.080294
vt 0.616663 0.050447
vt 0.658156 0.028269
vt 0.703178 0.014612
vt 0.750000 0.010000
vt 0.796822 0.014612
vt 0.841844 0.028269
vt 0.883337 0.050447
vt 0.919706 0.080294
vt 0.949553 0.116663
vt 0.971731 0.158156
vt 0.985388 0.203178
vt 0.990000 0.250000
vt 0.985388 0.296822
vt 0.971731 0.341844
vt 0.949553 0.383337
vt 0.919706 0.419706
vt 0.883337 0.449553
vt 0.841844 0.471731
vt 0.796822 0.485388
vt 0.203179 0.485389
vn -0.0641 0.7104 -0.7009
vn -0.1974 0.7115 -0.6744
vn -0.3232 0.7130 -0.6222
vn -0.4370 0.7147 -0.5462
vn -0.5341 0.7163 -0.4490
vn -0.6108 0.7178 -0.3341
vn -0.6639 0.7189 -0.2060
vn -0.6910 0.7195 -0.0696
vn -0.6910 0.7195 0.0696
vn -0.6639 0.7189 0.2060
vn -0.6108 0.7178 0.3341
vn -0.5341 0.7163 0.4490
vn -0.4370 0.7147 0.5462
vn -0.3232 0.7130 0.6222
vn -0.1974 0.7115 0.6744
vn -0.0641 0.7104 0.7009
vn 0.0716 0.7097 0.7009
vn 0.2048 0.7094 0.6744
vn 0.3307 0.7096 0.6222
vn 0.4444 0.7100 0.5462
vn 0.5416 0.7107 0.4490
vn 0.6183 0.7114 0.3341
vn 0.6714 0.7119 0.2060
vn 0.6985 0.7122 0.0696
vn 0.6985 0.7122 -0.0696
vn 0.6714 0.7119 -0.2060
vn 0.6183 0.7114 -0.3341
vn 0.5416 0.7107 -0.4490
vn 0.4444 0.7100 -0.5462
vn 0.3307 0.7096 -0.6222
vn -0.0052 -1.0000 0.0000
vn 0.2048 0.7094 -0.6744
vn 0.0716 0.7097 -0.7009
usemtl None
s off
f 25/43/19 26/44/19 57/45/19
f 26/44/20 27/46/20 57/45/20
f 27/46/21 28/47/21 57/45/21
f 28/47/22 29/48/22 57/45/22
f 29/48/23 30/49/23 57/45/23
f 30/49/24 31/50/24 57/45/24
f 31/50/25 32/51/25 57/45/25
f 32/51/26 33/52/26 57/45/26
f 33/52/27 34/53/27 57/45/27
f 34/53/28 35/54/28 57/45/28
f 35/54/29 36/55/29 57/45/29
f 36/55/30 37/56/30 57/45/30
f 37/56/31 38/57/31 57/45/31
f 38/57/32 39/58/32 57/45/32
f 39/58/33 40/59/33 57/45/33
f 40/59/34 41/60/34 57/45/34
f 41/60/35 42/61/35 57/45/35
f 42/61/36 43/62/36 57/45/36
f 43/62/37 44/63/37 57/45/37
f 44/63/38 45/64/38 57/45/38
f 45/64/39 46/65/39 57/45/39
f 46/65/40 47/66/40 57/45/40
f 47/66/41 48/67/41 57/45/41
f 48/67/42 49/68/42 57/45/42
f 49/68/43 50/69/43 57/45/43
f 50/69/44 51/70/44 57/45/44
f 51/70/45 52/71/45 57/45/45
f 52/71/46 53/72/46 57/45/46
f 53/72/47 54/73/47 57/45/47
f 54/73/48 55/74/48 57/45/48
f 25/75/49 56/76/49 55/77/49 54/78/49 53/79/49 52/80/49 51/81/49 50/82/49 49/83/49 48/84/49 47/85/49 46/86/49 45/87/49 44/88/49 43/89/49 42/90/49 41/91/49 40/92/49 39/93/49 38/94/49 37/95/49 36/96/49 35/97/49 34/98/49 33/99/49 32/100/49 31/101/49 30/102/49 29/103/49 28/104/49 27/105/49 26/106/49
f 55/74/50 56/107/50 57/45/50
f 56/107/51 25/43/51 57/45/51
